# xmcd
#
# Track frame offsets: 
#        150
#        10783
#        35922
#        47645
#        65495
#        76323
#        89505
#        115550
#        134020
#        150853
#        164687
#        186542
#        191630
#        216414
#        231550
#        248198
#        277141
#        292626
#
# Disc length: 4181 seconds
#
# Revision: 3
# Processed by: cddbd v1.5.1PL0 Copyright (c) Steve Scherf et al.
# Submitted via: ExactAudioCopy v0.95a5
#
DISCID=0c105312
DTITLE=Louis Armstrong - Hello Dolly
DYEAR=2000
DGENRE=Jazz
TTITLE0=What A Wonderful World
TTITLE1=Sweethearts On Parade (With Frank Sinatra)
TTITLE2=Hello Dolly
TTITLE3=Cabaret
TTITLE4=Pretty Little Missy
TTITLE5=I Can't Give You Anything But Love
TTITLE6=Basin Street Blues
TTITLE7=Ain't Misbehavin'
TTITLE8=On The Sunny Side Of The Street
TTITLE9=Snake Rag
TTITLE10=Tea For Two
TTITLE11=When You're Smiling
TTITLE12=Big Butter and Egg Man
TTITLE13=Dinah
TTITLE14=What Did I Do To Be So Black And Blue
TTITLE15=How High The Moon
TTITLE16=Please Don't Talk About Me When I'm Gone
TTITLE17=That's My Desire
EXTD=YEAR: 2000
EXTT0=
EXTT1=
EXTT2=
EXTT3=
EXTT4=
EXTT5=
EXTT6=
EXTT7=
EXTT8=
EXTT9=
EXTT10=
EXTT11=
EXTT12=
EXTT13=
EXTT14=
EXTT15=
EXTT16=
EXTT17=
PLAYORDER=
